<?xml version="1.0" encoding="utf-8"?>
<!-- Generator: Adobe Illustrator 24.2.1, SVG Export Plug-In . SVG Version: 6.00 Build 0)  -->
<svg version="1.1" id="SvgjsSvg1081" xmlns:svgjs="http://svgjs.com/svgjs"
	 xmlns="http://www.w3.org/2000/svg" xmlns:xlink="http://www.w3.org/1999/xlink" x="0px" y="0px" viewBox="0 0 288 288"
	 style="enable-background:new 0 0 288 288;" xml:space="preserve">
<style type="text/css">
	.st0{fill:#00C6CF;}
</style>
<g id="SvgjsG1083">
	<path class="st0" d="M144.6,240.4c3.8,0,16-5.1,33.4-21.2c27.7-25.5,60-70.2,60-112.3c0-51.9-42-93.9-93.9-93.9s-93.9,42-93.9,93.9
		C50.1,173.1,127.2,239,144.6,240.4z M144,51c24.7,0,44.8,20,44.8,44.8s-20,44.8-44.8,44.8s-44.8-20-44.8-44.8
		C99.3,71,119.3,51,144,51z M246,249.2c0,8.8-36,25.7-102,25.7S42,258,42,249.2c0-5.9,16.9-16.7,54.4-22.3c0.7-0.1,1.3-0.3,1.9-0.6
		c17.6,16.6,34.8,27.3,45.2,28.1h1.3c14,0,34.5-17.3,42.7-24.9c1-0.9,2.1-2,3.1-3c0.4,0.1,0.7,0.2,1.1,0.3
		C229.2,232.5,246,243.4,246,249.2z"/>
</g>
</svg>
