<?xml version="1.0" encoding="utf-8"?>
<!-- Generator: Adobe Illustrator 24.2.1, SVG Export Plug-In . SVG Version: 6.00 Build 0)  -->
<svg version="1.1" id="SvgjsSvg1081" xmlns:svgjs="http://svgjs.com/svgjs"
	 xmlns="http://www.w3.org/2000/svg" xmlns:xlink="http://www.w3.org/1999/xlink" x="0px" y="0px" viewBox="0 0 288 288"
	 style="enable-background:new 0 0 288 288;" xml:space="preserve">
<style type="text/css">
	.st0{fill:#72B626;}
</style>
<g id="SvgjsG1083">
	<path class="st0" d="M144.6,243.4c3.9,0,16.5-5.2,34.4-21.8c28.5-26.2,61.8-72.4,61.8-115.8C240.8,52.3,197.5,9,144,9
		s-96.8,43.3-96.8,96.8C47.2,174,126.7,241.9,144.6,243.4z M144,48.1c25.5,0,46.1,20.7,46.1,46.1s-20.7,46.1-46.1,46.1
		s-46.1-20.7-46.1-46.1C97.9,68.8,118.5,48.2,144,48.1z M249.2,252.5c0,9-37.1,26.5-105.2,26.5S38.8,261.5,38.8,252.5
		c0-6,17.4-17.2,56.1-23c0.7-0.1,1.3-0.3,1.9-0.6c18.1,17.1,35.9,28.1,46.6,28.9h1.4c14.5,0,35.6-17.8,44.1-25.6
		c1.1-1,2.1-2,3.2-3.1c0.4,0.1,0.7,0.2,1.1,0.3C231.8,235.2,249.2,246.4,249.2,252.5z"/>
</g>
</svg>
