<?xml version="1.0" encoding="utf-8"?>
<!-- Generator: Adobe Illustrator 24.2.1, SVG Export Plug-In . SVG Version: 6.00 Build 0)  -->
<svg version="1.1" id="SvgjsSvg1094" xmlns:svgjs="http://svgjs.com/svgjs"
	 xmlns="http://www.w3.org/2000/svg" xmlns:xlink="http://www.w3.org/1999/xlink" x="0px" y="0px" viewBox="0 0 288 288"
	 style="enable-background:new 0 0 288 288;" xml:space="preserve">
<style type="text/css">
	.st0{fill:#FFFFFF;}
	.st1{fill:#020202;}
	.st2{fill:#00C6CF;}
</style>
<g>
	<g id="XMLID_1_">
		<g>
			<path class="st0" d="M201.9,152.7c1.5,4.4,1.6,9.2,0.3,13.7c-0.2,0.3-0.3,0.5-0.5,0.8c-0.5,0.6-1.1,1.1-2,1
				c0.7,0,1.3-0.4,1.8-0.9c-0.3,0.3-0.6,0.5-1,0.6c0.4-0.2,0.7-0.5,1-0.9c0.3-0.3,0.4-0.5,0.5-0.8
				C203.4,161.6,203.3,157,201.9,152.7z"/>
			<path class="st1" d="M201.5,167.3c-0.5,0.6-1.1,0.9-1.8,0.9h-0.2c0.4,0,0.7-0.1,1-0.3C200.9,167.8,201.2,167.6,201.5,167.3z"/>
			<path class="st0" d="M198.9,146.6c1.3,1.9,2.3,4,3,6.1c-0.7-2.2-1.8-4.3-3.2-6.3c-0.2-0.3-0.5-0.7-0.7-1
				C198.3,145.8,198.6,146.2,198.9,146.6z"/>
			<path class="st0" d="M198,145.4c-0.3-0.3-0.5-0.7-0.8-1C197.5,144.7,197.7,145,198,145.4z"/>
			<path class="st1" d="M197.7,167c0.3,0.4,0.8,0.8,1.5,1h0.5c0.3,0,0.6,0,0.8-0.1c-0.3,0.2-0.7,0.3-1,0.3h-0.3
				C198.4,167.9,197.9,167.5,197.7,167z"/>
			<path class="st0" d="M197.5,167c0.3,0.4,0.7,0.8,1.3,1.1c-0.5-0.2-0.9-0.5-1.2-0.9c-0.1-0.1-0.2-0.3-0.2-0.4
				C197.4,166.8,197.4,166.9,197.5,167z"/>
			<path class="st0" d="M197.2,144.4c-0.3-0.3-0.5-0.7-0.8-1C196.7,143.7,196.9,144.1,197.2,144.4z"/>
			<path class="st0" d="M195.7,150.9c0.1,0.1,0.2,0.3,0.2,0.4C195.8,151.2,195.7,151.1,195.7,150.9z"/>
			<path class="st0" d="M192.4,146.1c1.3,1.4,2.5,2.9,3.3,4.5c-0.4-0.8-0.9-1.6-1.5-2.4c0,0-0.1-0.1-0.1-0.1
				C193.6,147.4,193,146.7,192.4,146.1z"/>
			<path class="st0" d="M194.2,141.2c0.2,0.2,0.4,0.4,0.6,0.6c-0.1-0.1-0.1-0.1-0.2-0.2C194.5,141.5,194.4,141.4,194.2,141.2z"/>
			<path class="st1" d="M194.4,141.2C194.4,141.2,194.4,141.2,194.4,141.2C194.4,141.2,194.4,141.2,194.4,141.2z"/>
			<path class="st0" d="M194.2,141.2c-0.1-0.1-0.3-0.2-0.4-0.4C193.9,141,194.1,141.1,194.2,141.2z"/>
			<path class="st1" d="M193.1,140.1c0.4,0.3,0.8,0.6,1.3,1.1C194,140.8,193.5,140.5,193.1,140.1z"/>
			<path class="st1" d="M193.7,156.9c-0.1-0.5-0.2-1-0.4-1.5c0,0,0-0.1,0-0.1c-0.1-0.4-0.2-0.7-0.4-1.1
				C193.2,155.2,193.5,156.1,193.7,156.9z"/>
			<path class="st1" d="M192.9,154.4c0.1,0.4,0.3,0.7,0.4,1.1c-0.4-1.3-1.1-2.5-1.8-3.7C192,152.6,192.5,153.4,192.9,154.4z"/>
			<path class="st0" d="M192.4,139.6c0.2,0.2,0.5,0.3,0.6,0.5c0,0-0.1-0.1-0.1-0.1C192.8,139.9,192.6,139.8,192.4,139.6z"/>
			<path class="st1" d="M192,139.3c-0.2-0.2-0.5-0.3-0.8-0.5c-0.1-0.1-0.3-0.2-0.4-0.3c-0.6-0.4-1.2-0.7-1.8-1.1
				C190.1,138,191.1,138.6,192,139.3z"/>
			<path class="st1" d="M190.4,165.2c1,0,2-0.5,3-1.4c-0.9,0.9-2,1.5-2.9,1.5H190c-0.1,0-0.2-0.1-0.3-0.1c0.1,0,0.1,0,0.2,0H190.4z"
				/>
			<path d="M175.7,150.5c-0.8,0.1-1.5-0.4-1.9-1l-0.1-0.1c-0.2-0.3-0.3-0.5-0.3-0.9c-0.5-1.5,0.5-2.5,2-2.9c1.8-0.6,3.8-0.7,5.7-0.5
				c0.1,0,0.2,0,0.3,0.1c1.5,0.3,2.9,0.8,4.2,1.5c0.7,0.3,1.3,0.8,1.9,1.2c0.6,0.5,1.2,1,1.7,1.5c0.8,0.7,1.5,1.4,2,2.3
				c1.3,1.8,2.1,3.9,2.4,6c0.3,1.9,0.2,3.9-0.4,5.9c-0.9,1-2,1.5-2.9,1.5h-0.4c-0.3-0.1-0.5-0.2-0.7-0.3c0,0,0,0-0.1,0
				c0,0,0-0.1,0-0.1c-0.8-0.5-1-1.4-1-2.4c0.9-3.3,0.1-6.6-2.2-9.1c-0.1-0.1-0.2-0.2-0.3-0.3c-0.1-0.1-0.3-0.3-0.3-0.3
				c-1.7-1.6-3.9-2.5-6.1-2.6c-0.3,0-0.6,0-1,0c-0.7,0-1.5,0.2-2.2,0.4C175.9,150.4,175.8,150.5,175.7,150.5z"/>
			<path class="st1" d="M189.4,165c0.1,0,0.2,0.1,0.3,0.2C189.6,165.1,189.5,165.1,189.4,165z"/>
			<path class="st1" d="M189.2,164.9c0.1,0,0.1,0.1,0.2,0.1C189.3,165,189.3,164.9,189.2,164.9z"/>
			<path class="st1" d="M188.9,137.5c-0.2-0.1-0.4-0.2-0.6-0.3C188.5,137.3,188.7,137.4,188.9,137.5z"/>
			<path class="st1" d="M188.4,137.2c-0.8-0.4-1.6-0.7-2.5-1C186.7,136.5,187.5,136.8,188.4,137.2z"/>
			<path class="st0" d="M187.5,147.9c-0.6-0.4-1.2-0.9-1.9-1.2c-1.3-0.7-2.8-1.3-4.2-1.5c1.6,0.2,3.2,0.8,4.7,1.6
				c0.6,0.3,1.3,0.8,1.9,1.2s1.2,0.9,1.7,1.5c0.8,0.8,1.4,1.5,2,2.3c0.4,0.8,0.8,1.7,1.2,2.6c-0.4-0.9-0.9-1.8-1.5-2.7
				c0.8,1.2,1.4,2.4,1.8,3.7c0,0,0,0.1,0,0.1c0.3,0.8,0.4,1.5,0.6,2.3c0.3,2,0.2,4-0.4,5.9c-1,0.9-2,1.5-3,1.4h-0.1
				c0.9,0,2-0.5,2.9-1.5c0.6-2,0.7-4,0.4-5.9c-0.3-2.1-1.1-4.2-2.4-6c-0.5-0.9-1.2-1.6-2-2.3C188.7,148.9,188.1,148.4,187.5,147.9z"
				/>
			<path class="st1" d="M185.9,136.2c-0.4-0.1-0.8-0.2-1.2-0.3C185.1,136,185.5,136.1,185.9,136.2z"/>
			<path class="st0" d="M180.4,140.3c2.9,0.3,5.7,1.2,8.1,2.7C186.1,141.5,183.3,140.6,180.4,140.3z"/>
			<path class="st1" d="M182.2,135.4c0.8,0.1,1.6,0.3,2.4,0.5c0,0,0,0,0.1,0c0.4,0.1,0.8,0.2,1.2,0.3c0,0,0,0,0,0
				c0.9,0.3,1.7,0.6,2.5,1c0.2,0.1,0.4,0.2,0.6,0.3c0,0,0.1,0,0.1,0.1c0.6,0.3,1.2,0.7,1.8,1.1C188.2,137,185.3,135.9,182.2,135.4z"
				/>
			<path class="st1" d="M181.2,135.3c0.3,0,0.7,0.1,1,0.2C181.9,135.4,181.5,135.4,181.2,135.3z"/>
			<path class="st0" d="M181.5,163.2c0.9-0.9,1.4-1.9,1.5-3c-0.1,1.1-0.6,2.2-1.5,3.1l-6.9-6.9c0,0,0.1-0.1,0.2-0.2L181.5,163.2z"/>
			<path class="st2" d="M194.4,141.2C194.4,141.2,194.4,141.2,194.4,141.2C194.4,141.2,194.4,141.2,194.4,141.2
				c-0.4-0.4-0.8-0.8-1.3-1.1C193.5,140.5,194,140.8,194.4,141.2z M193.4,163.8c-1,0.9-2,1.4-3,1.4h-0.5c-0.1,0-0.1,0-0.2,0
				c0.1,0.1,0.2,0.1,0.3,0.1h0.5C191.4,165.3,192.5,164.7,193.4,163.8z M189.7,165.2c-0.1-0.1-0.2-0.1-0.3-0.2
				c-0.1,0-0.1-0.1-0.2-0.1c0.1,0,0.1,0.1,0.2,0.1C189.5,165.1,189.6,165.1,189.7,165.2z M176.1,150.5c3.2-1,6.5-0.1,9,2.1
				c-0.7-0.6-1.4-1.1-2.1-1.5c0.8,0.4,1.5,0.9,2.1,1.4c0.1,0.1,0.3,0.3,0.3,0.3c0.1,0.1,0.2,0.2,0.3,0.3c2.2,2.5,3.1,5.8,2.1,9
				c0,1.1,0.3,2,1.1,2.5c0.1,0,0.1,0.1,0.1,0.1c0.1,0,0.1,0.1,0.1,0.1c0.2,0.1,0.4,0.2,0.7,0.3h0.1h0.4h0.1c1,0.1,2-0.5,3-1.4
				c0.6-1.9,0.7-3.9,0.4-5.9c-0.1-0.8-0.3-1.6-0.6-2.3c0.2,0.5,0.3,1,0.4,1.5c-0.2-0.9-0.4-1.7-0.8-2.6c-0.4-0.9-0.8-1.8-1.2-2.6
				c-0.6-0.8-1.2-1.5-2-2.3c-0.5-0.6-1.1-1.1-1.7-1.5s-1.3-0.9-1.9-1.2c-1.5-0.9-3.1-1.4-4.7-1.6c-0.1,0-0.2,0-0.3-0.1
				c-2-0.4-4.1-0.3-6.2,0.3c-1.5,0.5-2.5,1.5-2,2.9c0.1,0.3,0.3,0.7,0.4,0.9l0.1,0.1c0.2,0.2,0.3,0.4,0.5,0.6c0,0,0,0,0,0
				c0,0,0,0,0,0.1c0.1,0.1,0.1,0.1,0.2,0.2c0.1,0.1,0.1,0.1,0.2,0.1c0.1,0.1,0.1,0.1,0.2,0.1C174.9,150.7,175.5,150.7,176.1,150.5z
				 M171.8,141.2c0.1,0.1,0.2,0.1,0.3,0.1c0.1,0,0.1,0,0.2,0c0,0,0.1,0,0.1,0c0.3,0,0.5,0,0.8-0.1c1.1-0.3,2.2-0.5,3.3-0.7
				c1.3-0.1,2.6-0.1,3.9,0c4.5,0.4,8.7,2.4,11.9,5.6c1.4,1.4,2.5,2.9,3.3,4.6c0,0.1,0.1,0.1,0.1,0.2l0,0v0c0,0.1,0.1,0.3,0.2,0.4
				c0,0,0,0,0,0c2,4.2,2.4,9.1,1.1,13.7c0,0.7,0.1,1.2,0.4,1.7c0,0.2,0.1,0.3,0.2,0.4c0.3,0.4,0.6,0.7,1.2,0.9
				c0.1,0.1,0.2,0.1,0.2,0.1h0.1h0.1h0.3h0.2c0.9,0.1,1.5-0.4,2-1c0.2-0.3,0.3-0.5,0.5-0.8c1.3-4.5,1.2-9.3-0.3-13.7
				c-0.7-2.1-1.7-4.2-3-6.1c-0.3-0.4-0.6-0.8-0.9-1.2c-0.3-0.3-0.5-0.7-0.8-1c-0.3-0.3-0.5-0.7-0.8-1c-0.2-0.3-0.5-0.5-0.7-0.7
				c-0.3-0.3-0.6-0.6-0.9-0.9c-0.2-0.2-0.4-0.4-0.6-0.6c-0.1-0.1-0.3-0.3-0.4-0.4l0,0c-0.3-0.2-0.5-0.4-0.8-0.7c0,0,0,0,0,0
				c-0.2-0.2-0.4-0.4-0.6-0.5c0,0,0,0-0.1,0c-0.2-0.1-0.4-0.3-0.5-0.4c-0.2-0.1-0.4-0.3-0.6-0.4c0.3,0.1,0.5,0.3,0.8,0.5
				c-0.9-0.7-1.9-1.3-3-1.8c0,0-0.1-0.1-0.1-0.1c-0.2-0.1-0.4-0.2-0.6-0.3c-0.8-0.4-1.6-0.7-2.5-1c0,0,0,0,0,0
				c-0.4-0.1-0.8-0.2-1.2-0.3c0,0,0,0-0.1,0c-0.9-0.2-1.7-0.4-2.6-0.6c-0.3-0.1-0.7-0.1-1-0.2c-3-0.3-6.1-0.1-9,0.8
				c-1.5,0.5-2.5,1.5-2,2.9c0.1,0.2,0.1,0.3,0.2,0.4c0,0,0,0,0,0.1C170.5,140.2,171,140.9,171.8,141.2
				C171.7,141.2,171.8,141.2,171.8,141.2z M262.5,75.4v136.7c0,28.1-22.2,50.3-49.8,50.3H75.4c-27.7,0-49.8-22.2-49.8-49.8V75.4
				c0-27.7,22.2-49.8,49.8-49.8h136.7C240.2,25.6,262.5,47.8,262.5,75.4z M183,160.2c0-0.3,0-0.6,0-0.8c-0.1-1.1-0.6-2.2-1.5-3.1
				c-0.5-0.5-1-0.9-1.6-1.1c-0.2-0.1-0.3-0.1-0.4-0.2c-0.6-0.2-1.2-0.3-1.8-0.2c-0.9,0.1-1.8,0.4-2.6,1.1c-0.1,0.1-0.1,0.1-0.2,0.2
				l0,0c0,0,0,0-0.1,0.1c-0.1,0.1-0.2,0.2-0.2,0.2l6.9,6.9C182.4,162.4,182.9,161.3,183,160.2z M182.2,174.2c0-2-0.5-4-2-5.4
				l-0.3-0.3L169.4,158l-0.3-0.3c-2.5-2.4-6.5-2.9-9.4-0.9l-10.8,7.4c-3,2-6.9,1.5-9.4-0.9l-26.8-26.8c-2.5-2.5-2.9-6.4-0.9-9.4
				l1.4-2l6-8.8c2-2.9,1.5-6.9-0.9-9.4l-0.3-0.3l-10.8-10.8c-2.9-2.9-7.4-2.9-10.4,0l-7.3,7l-2.5,1.9c-5.4,5.4-7.9,13.8-5.9,21.2
				c2.8,10.8,8.3,21.2,16,29.3c0.5,0.5,1,1.1,1.6,1.6l20.3,20.3c0.4,0.4,0.9,0.9,1.3,1.3c0.5,0.5,1,1,1.6,1.4c0,0,0.1,0.1,0.1,0.1
				c0.5,0.5,1.1,1,1.7,1.4c7.5,6.2,16.2,10.6,26,13.1c2,0.5,3.4,0.5,5.4,0.5c5.4,0,11.3-2,15.8-6.4l9.4-8.8
				C181.2,178.2,182.2,176.2,182.2,174.2z"/>
			<path d="M175.1,156c0.3-0.2,0.6-0.4,0.9-0.6c0.1,0,0.1-0.1,0.2-0.1c0.4-0.2,0.9-0.3,1.3-0.3c0.6-0.1,1.2,0,1.8,0.2
				c0.2,0.1,0.3,0.1,0.4,0.2c0.8,0.1,1.3,0.5,1.8,1c0.9,0.9,1.4,1.9,1.5,3c0,0.3,0,0.6,0,0.8c-0.1,1.1-0.6,2.1-1.5,3l-6.7-7
				c0.1-0.1,0.1-0.1,0.1-0.1l0,0c0.2-0.2,0.4-0.3,0.6-0.4C175.4,155.8,175.2,155.9,175.1,156z"/>
			<path class="st1" d="M176.9,150.2c0.5-0.1,0.9-0.2,1.4-0.2c0.3,0,0.6,0,1,0c1.2,0.1,2.3,0.3,3.3,0.8
				C180.8,150.1,178.9,149.8,176.9,150.2z"/>
			<path class="st1" d="M177.4,154.9c-0.4,0.1-0.8,0.2-1.2,0.4c-0.1,0-0.1,0-0.2,0.1c-0.1,0.1-0.3,0.1-0.4,0.2
				C176.1,155.3,176.7,155.1,177.4,154.9z"/>
			<path class="st1" d="M175.8,150.5c0.1,0,0.2-0.1,0.4-0.1c0.3-0.1,0.5-0.1,0.7-0.2c-0.2,0.1-0.4,0.1-0.6,0.2
				C176,150.5,175.9,150.5,175.8,150.5z"/>
			<path class="st1" d="M175.5,155.6c0.1-0.1,0.3-0.2,0.4-0.2c-0.3,0.1-0.6,0.3-0.9,0.6C175.2,155.9,175.4,155.8,175.5,155.6
				L175.5,155.6z"/>
			<path class="st1" d="M176.1,150.4c-0.1,0.1-0.2,0.1-0.4,0.1c0,0,0,0-0.1,0c0.1,0,0.2-0.1,0.3-0.1c0.8-0.2,1.5-0.3,2.2-0.4
				c-0.4,0-0.9,0.1-1.4,0.2c0,0,0,0,0,0C176.6,150.3,176.4,150.3,176.1,150.4z"/>
			<path class="st1" d="M175.7,150.5C175.7,150.5,175.7,150.5,175.7,150.5C175.7,150.5,175.6,150.6,175.7,150.5
				C175.6,150.6,175.7,150.5,175.7,150.5z"/>
			<path class="st2" d="M175.4,150.6c-0.3,0.1-0.7,0-0.9-0.2c-0.1,0-0.1-0.1-0.2-0.1c-0.1,0-0.1-0.1-0.2-0.1
				c-0.1-0.1-0.1-0.1-0.2-0.2C174.4,150.4,174.9,150.6,175.4,150.6z"/>
			<path class="st1" d="M176.1,150.5c-0.6,0.2-1.2,0.2-1.6-0.1c0.3,0.2,0.6,0.2,0.9,0.2c0.1,0,0.1,0,0.2,0c0,0,0.1,0,0.1,0
				c0.1,0,0.3-0.1,0.4-0.1c0.2-0.1,0.4-0.1,0.6-0.2c0,0,0,0,0,0c2-0.4,3.9-0.2,5.6,0.6c0.2,0.1,0.3,0.1,0.5,0.2
				c0.8,0.4,1.5,0.9,2.1,1.5C182.6,150.4,179.3,149.5,176.1,150.5z"/>
			<path class="st1" d="M174.3,150.3c0.1,0.1,0.1,0.1,0.2,0.1C174.4,150.4,174.4,150.4,174.3,150.3z"/>
			<path class="st1" d="M173.1,141.2c1.1-0.3,2.3-0.6,3.4-0.7C175.4,140.7,174.3,140.9,173.1,141.2c-0.2,0.1-0.5,0.2-0.7,0.1
				C172.6,141.3,172.9,141.3,173.1,141.2z"/>
			<path class="st1" d="M173.7,149.6c0.1,0.1,0.1,0.2,0.2,0.3C173.8,149.8,173.7,149.7,173.7,149.6z"/>
			<path d="M180.4,140.3c-2.4-0.2-4.9,0-7.3,0.7c-0.6,0.2-1.2,0.1-1.6-0.1c-0.2-0.1-0.3-0.3-0.5-0.4s-0.3-0.4-0.4-0.6
				c-0.1-0.1-0.1-0.2-0.2-0.4c0,0,0,0,0-0.1c0-0.1-0.1-0.2-0.1-0.3c-0.5-1.5,0.5-2.5,2-2.9c2.9-0.9,6-1.2,8.9-0.9
				c0.3,0.1,0.7,0.1,1,0.2c0,0,0,0,0,0c3.5,0.5,6.9,1.8,9.8,3.9c0.1,0.1,0.2,0.1,0.3,0.2c0,0,0,0,0.1,0c0.2,0.2,0.4,0.3,0.5,0.5
				c0,0,0.1,0,0.1,0.1c0,0,0,0,0,0c0,0,0.1,0.1,0.1,0.1c0.2,0.2,0.5,0.4,0.7,0.6l0,0c0.1,0.1,0.3,0.3,0.4,0.4
				c0.1,0.1,0.3,0.3,0.4,0.4c0.1,0.1,0.1,0.1,0.2,0.2c0.3,0.3,0.6,0.6,0.9,0.9c0.2,0.2,0.5,0.5,0.7,0.7c0.3,0.3,0.6,0.6,0.8,1
				c0.3,0.3,0.5,0.6,0.8,1c0.3,0.3,0.5,0.7,0.7,1c1.4,2,2.5,4.1,3.2,6.3c1.4,4.3,1.5,8.9,0.1,13.5c-0.1,0.3-0.2,0.5-0.5,0.8
				c-0.3,0.4-0.6,0.7-1,0.9c-0.3,0.1-0.6,0.1-0.8,0.1h-0.5c-0.7-0.2-1.2-0.6-1.5-1c0.2,0.5,0.7,0.9,1.5,1.2h-0.1
				c-0.1,0-0.2-0.1-0.3-0.1c-0.6-0.3-1-0.6-1.3-1.1c-0.1-0.1-0.1-0.2-0.1-0.2c-0.1-0.3-0.2-0.8-0.2-1.3c1.4-4.7,0.9-9.7-1.2-13.9
				c0-0.1-0.1-0.2-0.1-0.2c0-0.2-0.1-0.3-0.2-0.4v0l0,0c-0.4-1-0.9-1.9-1.5-2.7c0.6,0.8,1.1,1.6,1.5,2.4c-0.8-1.6-1.9-3.2-3.3-4.5
				c-0.1-0.1-0.1-0.1-0.1-0.2c-1.1-1.1-2.4-2.1-3.8-2.9C186.1,141.5,183.3,140.6,180.4,140.3z"/>
			<path class="st0" d="M171,140.4c-0.1-0.2-0.3-0.4-0.4-0.6C170.7,140.1,170.8,140.3,171,140.4z"/>
			<path class="st1" d="M173.1,141c2.4-0.7,4.9-0.9,7.3-0.7c2.9,0.3,5.7,1.2,8.1,2.7c1.4,0.8,2.6,1.8,3.8,2.9
				c0.1,0.1,0.1,0.1,0.1,0.2c0.6,0.6,1.1,1.3,1.7,2c-0.5-0.7-1.1-1.4-1.7-2c-3.2-3.2-7.5-5.2-12-5.6c-1.3-0.1-2.6-0.1-3.9,0
				c-1.1,0.1-2.3,0.3-3.4,0.7c-0.3,0.1-0.5,0.1-0.7,0.1c0,0-0.1,0-0.1,0c-0.1,0-0.2,0-0.2,0c-0.1,0-0.2-0.1-0.3-0.1c0,0,0,0,0,0
				c-0.6-0.3-1.1-0.9-1.3-1.7c0.1,0.1,0.1,0.2,0.2,0.4c0.1,0.2,0.3,0.4,0.4,0.6s0.3,0.3,0.5,0.4C171.9,141.2,172.5,141.3,173.1,141z
				"/>
			<path class="st2" d="M159.7,156.8c2.9-2,6.9-1.5,9.4,0.9l0.3,0.3c-2.5-2.5-6.4-2.9-9.4-0.9l-10.8,7.4c-2.9,2-6.9,1.5-9.4-0.9
				l-0.3-0.3c2.5,2.4,6.4,2.9,9.4,0.9L159.7,156.8z"/>
			<path d="M107.2,95.8l10.8,10.8c2.4,2.5,2.9,6.4,0.9,9.4l-6,8.8l-1.4,2c-2,2.9-1.5,6.9,0.9,9.4l0.3,0.3l26.8,26.8l0.3,0.3
				c2.5,2.4,6.5,2.9,9.4,0.9l10.8-7.4c3-2,6.9-1.6,9.4,0.9l10.5,10.5c1.5,1.5,2,3.4,2,5.4s-0.9,4-2,5.5l-9.4,8.8
				c-4.5,4.5-10.4,6.4-15.8,6.4c-2,0-3.4,0-5.4-0.5c-9.7-2.4-18.3-6.7-25.7-12.8c-0.6-0.5-1.1-0.9-1.7-1.4c0,0-0.1,0-0.1-0.1
				c-0.5-0.5-1.1-0.9-1.6-1.4c-0.4-0.4-0.9-0.8-1.3-1.3l-20.3-20.3c-0.5-0.5-1-1.1-1.6-1.6c-7.7-8.2-13-18.4-15.7-29
				c-2-7.4,0.5-15.8,5.9-21.2l2.2-2.2l7.3-7C99.8,92.9,104.3,92.9,107.2,95.8z"/>
			<path class="st2" d="M81.4,126.2c2.7,10.6,8.1,20.8,15.7,29c-7.7-8.1-13.2-18.5-16-29.3c-2-7.4,0.5-15.8,5.9-21.2l2.5-1.9
				l-2.2,2.2C81.9,110.4,79.4,118.8,81.4,126.2z"/>
		</g>
		<g>
		</g>
	</g>
</g>
</svg>
