<?xml version="1.0" encoding="utf-8"?>
<!-- Generator: Adobe Illustrator 24.2.1, SVG Export Plug-In . SVG Version: 6.00 Build 0)  -->
<svg version="1.1" id="SvgjsSvg1094" xmlns:svgjs="http://svgjs.com/svgjs"
	 xmlns="http://www.w3.org/2000/svg" xmlns:xlink="http://www.w3.org/1999/xlink" x="0px" y="0px" viewBox="0 0 288 288"
	 style="enable-background:new 0 0 288 288;" xml:space="preserve">
<style type="text/css">
	.st0{fill:#FFFFFF;}
	.st1{fill:#72B626;}
</style>
<g id="SvgjsG1096">
	<g id="XMLID_1_">
		<g>
			<path class="st0" d="M199.8,142.4c6.9,6.9,9.6,16.5,6.9,25.5c-0.5,1.1-1.6,2.1-2.7,2.1h-0.5c-1.6-0.5-2.1-1.6-2.1-3.2
				c2.1-7.4,0-15.4-5.3-20.7s-13.3-7.4-20.7-5.3c-1.6,0.5-2.7-0.5-3.2-2.1c-0.5-1.6,0.5-2.7,2.1-3.2
				C183.3,132.8,193.4,135.5,199.8,142.4z"/>
			<path class="st0" d="M182.8,170.6c1.6,1.6,2.1,3.7,2.1,5.8c0,2.1-1.1,4.2-2.1,5.8l-10.1,9.6c-4.8,4.8-11.2,6.9-17,6.9
				c-2.1,0-3.7,0-5.8-0.5c-12.7-3.2-23.9-9.6-32.9-18.6l-21.8-21.8c-9-9-15.4-20.7-18.6-32.9c-2.1-8,0.5-17,6.4-22.8L93,91.9
				c3.2-3.2,8-3.2,11.2,0l11.7,11.7c2.7,2.7,3.2,6.9,1.1,10.1l-8,11.7c-2.1,3.2-1.6,7.4,1.1,10.1l29.2,29.2
				c2.7,2.7,6.9,3.2,10.1,1.1l11.7-8c3.2-2.1,7.4-1.6,10.1,1.1L182.8,170.6z"/>
			<path class="st0" d="M184.4,157.3c2.1,2.1,2.1,5.3,0,7.4l-7.4-7.4C179.1,155.2,182.2,155.2,184.4,157.3z"/>
			<path class="st1" d="M271.5,70.2v147.1c0,30.3-23.9,54.2-53.6,54.2H70.2c-29.7,0-53.6-23.9-53.6-53.6V70.2
				c0-29.7,23.9-53.6,53.6-53.6h147.1C247.6,16.5,271.5,40.4,271.5,70.2z M206.7,167.9c2.7-9,0-18.6-6.9-25.5
				c-6.4-6.9-16.5-9.6-25.5-6.9c-1.6,0.5-2.7,1.6-2.1,3.2c0.5,1.6,1.6,2.7,3.2,2.1c7.4-2.1,15.4,0,20.7,5.3s7.4,13.3,5.3,20.7
				c0,1.6,0.5,2.7,2.1,3.2h0.5C205.1,170,206.1,169,206.7,167.9z M197.1,165.2c1.6-5.3,0-11.2-4.2-15.4c-4.2-4.2-10.1-5.8-15.4-4.2
				c-1.6,0.5-2.7,1.6-2.1,3.2c0.5,1.6,1.6,2.7,3.2,2.1c3.7-1.1,7.4,0,10.1,2.7s3.7,6.4,2.7,10.1c0,1.6,0.5,2.7,2.1,3.2h0.5
				C195,166.8,196.1,166.3,197.1,165.2z M184.4,164.7c2.1-2.1,2.1-5.3,0-7.4c-2.1-2.1-5.3-2.1-7.4,0L184.4,164.7z M184.9,176.4
				c0-2.1-0.5-4.2-2.1-5.8l-11.7-11.7c-2.7-2.7-6.9-3.2-10.1-1.1l-11.7,8c-3.2,2.1-7.4,1.6-10.1-1.1L110,135.5
				c-2.7-2.7-3.2-6.9-1.1-10.1l8-11.7c2.1-3.2,1.6-7.4-1.1-10.1l-11.7-11.7c-3.2-3.2-8-3.2-11.2,0L82.9,102
				c-5.8,5.8-8.5,14.9-6.4,22.8c3.2,12.2,9.6,23.9,18.6,32.9l21.8,21.8c9,9,20.2,15.4,32.9,18.6c2.1,0.5,3.7,0.5,5.8,0.5
				c5.8,0,12.2-2.1,17-6.9l10.1-9.6C183.8,180.7,184.9,178.5,184.9,176.4z"/>
			<path class="st0" d="M192.9,149.8c4.2,4.2,5.8,10.1,4.2,15.4c-1.1,1.1-2.1,1.6-3.2,1.6h-0.5c-1.6-0.5-2.1-1.6-2.1-3.2
				c1.1-3.7,0-7.4-2.7-10.1s-6.4-3.7-10.1-2.7c-1.6,0.5-2.7-0.5-3.2-2.1c-0.5-1.6,0.5-2.7,2.1-3.2
				C182.8,144,188.6,145.6,192.9,149.8z"/>
		</g>
		<g>
		</g>
	</g>
</g>
</svg>
