<?xml version="1.0" encoding="utf-8"?>
<!-- Generator: Adobe Illustrator 24.2.1, SVG Export Plug-In . SVG Version: 6.00 Build 0)  -->
<svg version="1.1" id="Layer_1" xmlns:svgjs="http://svgjs.com/svgjs"
	 xmlns="http://www.w3.org/2000/svg" xmlns:xlink="http://www.w3.org/1999/xlink" x="0px" y="0px" viewBox="0 0 248.3 248.3"
	 style="enable-background:new 0 0 248.3 248.3;" xml:space="preserve">
<style type="text/css">
	.st0{fill:#FF0000;}
</style>
<g id="SvgjsG1036">
	<path class="st0" d="M211.9,36.4c-48.5-48.5-127.1-48.5-175.6,0s-48.5,127.1,0,175.6s127.1,48.5,175.6,0S260.4,84.8,211.9,36.4
		L211.9,36.4z M176.8,162.8c3.9,3.9,3.9,10.2,0,14c-3.9,3.9-10.2,3.9-14,0l-38.6-38.6l-38.6,38.6c-3.9,3.9-10.1,3.9-14,0
		c0,0,0,0,0,0c-3.9-3.9-3.9-10.2,0-14c0,0,0,0,0,0l38.6-38.6L71.5,85.5c-3.9-3.9-3.9-10.2,0-14c3.9-3.9,10.2-3.9,14,0l38.6,38.6
		l38.6-38.6c3.9-3.9,10.2-3.9,14,0c3.9,3.9,3.9,10.2,0,14l-38.6,38.6L176.8,162.8L176.8,162.8z"/>
</g>
</svg>
