<?xml version="1.0" encoding="utf-8"?>
<!-- Generator: Adobe Illustrator 24.2.1, SVG Export Plug-In . SVG Version: 6.00 Build 0)  -->
<svg version="1.1" id="SvgjsSvg1051" xmlns:svgjs="http://svgjs.com/svgjs"
	 xmlns="http://www.w3.org/2000/svg" xmlns:xlink="http://www.w3.org/1999/xlink" x="0px" y="0px" viewBox="0 0 288 288"
	 style="enable-background:new 0 0 288 288;" xml:space="preserve">
<style type="text/css">
	.st0{clip-path:url(#SVGID_2_);}
	.st1{fill:#FFFFFF;}
</style>
<g id="SvgjsG1053">
	<g>
		<defs>
			<rect id="SVGID_1_" width="288" height="288"/>
		</defs>
		<clipPath id="SVGID_2_">
			<use xlink:href="#SVGID_1_"  style="overflow:visible;"/>
		</clipPath>
		<g class="st0">
			<path class="st1" d="M262.7,50.1H25.3c-4.8,0-5.5,2.3-1.6,5L137.7,136c3.5,3.6,9.2,3.6,12.7,0l113.9-80.9
				C268.2,52.4,267.5,50.1,262.7,50.1z"/>
			<path class="st1" d="M274.5,72.5v149c0,9-7.3,16.3-16.3,16.3H29.8c-9,0-16.3-7.3-16.3-16.3v-149c0-4.8,3.2-6.4,7.1-3.6L137.7,153
				c3.5,3.6,9.2,3.6,12.7,0l117.1-84.1C271.4,66.1,274.5,67.7,274.5,72.5z"/>
		</g>
	</g>
</g>
</svg>
