<?xml version="1.0" encoding="utf-8"?>
<!-- Generator: Adobe Illustrator 24.2.1, SVG Export Plug-In . SVG Version: 6.00 Build 0)  -->
<svg version="1.1" id="Layer_1" xmlns="http://www.w3.org/2000/svg" xmlns:xlink="http://www.w3.org/1999/xlink" x="0px" y="0px"
	 viewBox="0 0 24 24" style="enable-background:new 0 0 24 24;" xml:space="preserve">
<style type="text/css">
	.st0{fill:#FFFFFF;}
</style>
<g id="XMLID_1_">
	<g>
		<path class="st0" d="M14.7,13.8c-0.4-0.4-1-0.4-1.4,0L13,14.1v-2.6c0-0.5-0.4-1-1-1s-1,0.5-1,1v2.6l-0.3-0.3c-0.4-0.4-1-0.4-1.4,0
			c-0.4,0.4-0.4,1,0,1.4l2,2c0.1,0.1,0.2,0.2,0.3,0.2c0.2,0.1,0.5,0.1,0.8,0c0.1-0.1,0.2-0.1,0.3-0.2l2-2
			C15.1,14.8,15.1,14.2,14.7,13.8z M22,8.5v10c0,1.7-1.3,3-3,3H5c-1.7,0-3-1.3-3-3v-13c0-1.7,1.3-3,3-3h4.6c1.3,0,2.4,0.8,2.8,2
			l0.3,1H19C20.7,5.5,22,6.8,22,8.5z"/>
	</g>
	<g>
	</g>
</g>
</svg>
