<?xml version="1.0" encoding="utf-8"?>
<!-- Generator: Adobe Illustrator 24.2.1, SVG Export Plug-In . SVG Version: 6.00 Build 0)  -->
<svg version="1.1" id="Layer_1" xmlns="http://www.w3.org/2000/svg" xmlns:xlink="http://www.w3.org/1999/xlink" x="0px" y="0px"
	 viewBox="0 0 16 16" style="enable-background:new 0 0 16 16;" xml:space="preserve">
<style type="text/css">
	.st0{fill:#939393;}
</style>
<path class="st0" d="M8,0.6C3.8,0.6,0.4,4,0.4,8.2c0,3.3,2.1,6.2,5.2,7.2C6,15.5,6.1,15.2,6.1,15c0-0.2,0-0.7,0-1.3
	c-2.1,0.5-2.6-1-2.6-1c-0.3-0.9-0.8-1.1-0.8-1.1c-0.7-0.5,0.1-0.5,0.1-0.5c0.8,0.1,1.2,0.8,1.2,0.8c0.7,1.2,1.8,0.8,2.2,0.6
	c0.1-0.5,0.3-0.8,0.5-1c-1.7-0.2-3.5-0.8-3.5-3.8c0-0.8,0.3-1.5,0.8-2c-0.1-0.2-0.3-1,0.1-2c0,0,0.6-0.2,2.1,0.8
	C6.7,4.3,7.4,4.3,8,4.3c0.6,0,1.3,0.1,1.9,0.3c1.4-1,2.1-0.8,2.1-0.8c0.4,1,0.2,1.8,0.1,2c0.5,0.5,0.8,1.2,0.8,2
	c0,2.9-1.8,3.6-3.5,3.8c0.3,0.2,0.5,0.7,0.5,1.4c0,1,0,1.8,0,2.1c0,0.2,0.1,0.4,0.5,0.4c3.1-1,5.2-4,5.2-7.2C15.6,4,12.2,0.6,8,0.6z
	"/>
</svg>
