<?xml version="1.0" encoding="utf-8"?>
<!-- Generator: Adobe Illustrator 24.2.1, SVG Export Plug-In . SVG Version: 6.00 Build 0)  -->
<svg version="1.1" id="SvgjsSvg1107" xmlns:svgjs="http://svgjs.com/svgjs"
	 xmlns="http://www.w3.org/2000/svg" xmlns:xlink="http://www.w3.org/1999/xlink" x="0px" y="0px" viewBox="0 0 288 288"
	 style="enable-background:new 0 0 288 288;" xml:space="preserve">
<style type="text/css">
	.st0{fill:#939393;}
</style>
<g id="SvgjsG1109">
	<path class="st0" d="M208.1,65.5L208.1,65.5c-8,0-14.4,6.4-14.4,14.4s6.4,14.4,14.4,14.4c8,0,14.4-6.4,14.4-14.4
		S216,65.5,208.1,65.5L208.1,65.5z M263.3,94.6c-0.2-10-2.1-19.8-5.5-29.2c-3.1-8-7.8-15.2-13.9-21.2c-5.9-6.2-13.2-10.9-21.2-13.8
		c-9.3-3.5-19.2-5.4-29.2-5.6C180.7,24,176.6,24,144,24s-36.7,0-49.4,0.7c-10,0.2-19.8,2.1-29.2,5.6c-8,3-15.3,7.7-21.2,13.8
		C38,50.1,33.3,57.4,30.4,65.4c-3.5,9.3-5.4,19.2-5.6,29.2C24,107.3,24,111.4,24,144s0,36.7,0.7,49.4c0.2,10,2.1,19.8,5.6,29.2
		c2.9,8,7.6,15.3,13.8,21.2c6,6.1,13.2,10.8,21.2,13.8c9.3,3.5,19.2,5.4,29.2,5.6c12.7,0.7,16.8,0.7,49.4,0.7s36.7,0,49.4-0.7
		c10-0.2,19.8-2.1,29.2-5.6c8-2.9,15.3-7.6,21.2-13.8c6.1-6,10.9-13.2,13.9-21.2c3.4-9.4,5.3-19.2,5.5-29.2
		c0-12.7,0.7-16.8,0.7-49.4S264,107.3,263.3,94.6z M241.7,192c-0.1,7.6-1.5,15.2-4.1,22.3c-1.9,5.2-5,9.9-9,13.8
		c-3.9,4-8.6,7-13.8,9c-7.2,2.6-14.7,4-22.3,4.1c-12,0.6-16.4,0.7-48,0.7s-36,0-48-0.7c-7.9,0.1-15.8-1.1-23.3-3.6
		c-5-2.1-9.5-5.1-13.2-9c-4-3.9-7-8.6-8.9-13.8c-2.9-7.3-4.6-15-4.8-22.8c0-12-0.7-16.4-0.7-48s0-36,0.7-48
		c0.1-7.8,1.5-15.5,4.2-22.8c2.1-5.1,5.4-9.6,9.5-13.2c3.6-4.1,8.2-7.4,13.2-9.6c7.3-2.6,15-4,22.8-4.1c12,0,16.4-0.7,48-0.7
		s36,0,48,0.7c7.6,0.1,15.2,1.5,22.3,4.1c5.5,2,10.3,5.3,14.3,9.6c3.9,3.7,7,8.2,9,13.2c2.7,7.3,4,15,4.1,22.8
		c0.6,12,0.7,16.4,0.7,48S242.3,180,241.7,192z M144,82.4c-34,0.1-61.5,27.7-61.4,61.7c0.1,34,27.7,61.5,61.7,61.4
		c34-0.1,61.4-27.6,61.4-61.6c0.1-33.9-27.4-61.5-61.3-61.6C144.2,82.4,144.1,82.4,144,82.4z M144,184c-22.1,0-40-17.9-40-40
		s17.9-40,40-40s40,17.9,40,40l0,0C184,166.1,166.1,184,144,184z"/>
</g>
</svg>
