<?xml version="1.0" encoding="utf-8"?>
<!-- Generator: Adobe Illustrator 24.2.1, SVG Export Plug-In . SVG Version: 6.00 Build 0)  -->
<svg version="1.1" id="SvgjsSvg1019" xmlns:svgjs="http://svgjs.com/svgjs"
	 xmlns="http://www.w3.org/2000/svg" xmlns:xlink="http://www.w3.org/1999/xlink" x="0px" y="0px" viewBox="0 0 288 288"
	 style="enable-background:new 0 0 288 288;" xml:space="preserve">
<style type="text/css">
	.st0{fill:#FFFFFF;}
</style>
<g id="SvgjsG1021">
	<g id="XMLID_1_">
		<g>
			<path class="st0" d="M144.4,84.1c33,0.1,59.6,26.9,59.5,59.9c0,0.1,0,0.2,0,0.3c-0.1,33-26.9,59.6-59.9,59.5c-0.1,0-0.2,0-0.4,0
				c-33-0.1-59.6-26.9-59.5-59.9c0-0.1,0-0.2,0-0.4c0.1-33,26.9-59.6,59.9-59.5C144.1,84.1,144.3,84.1,144.4,84.1z"/>
			<path class="st0" d="M256.2,129c10.4,0,18.7,6.7,18.7,15c0,8.3-8.4,15-18.7,15c-10.4,0-18.7-6.7-18.7-15
				C237.6,135.7,245.9,129,256.2,129z"/>
			<path class="st0" d="M237.6,50.4c5.8,5.8,4.7,16.5-2.6,23.8c-7.3,7.3-18,8.5-23.8,2.6c-5.8-5.9-4.7-16.5,2.6-23.8
				C221,45.8,231.7,44.6,237.6,50.4z"/>
			<path class="st0" d="M234.9,213.7c7.3,7.3,8.5,18,2.7,23.8c-5.9,5.8-16.5,4.6-23.8-2.7c-7.3-7.3-8.5-18-2.7-23.8
				C216.9,205.2,227.6,206.4,234.9,213.7z"/>
			<path class="st0" d="M159,31.7c0,10.4-6.7,18.7-15,18.7c-8.3,0-15-8.4-15-18.7S135.7,13,144,13C152.3,13,159,21.3,159,31.7z"/>
			<path class="st0" d="M144,237.6c8.3,0,14.9,8.3,14.9,18.7c0,10.3-6.7,18.7-15,18.7c-8.3,0-15-8.4-15-18.7
				C129,245.9,135.7,237.6,144,237.6z"/>
			<path class="st0" d="M76.9,211.1c5.8,5.8,4.7,16.5-2.7,23.8c-7.3,7.3-18,8.5-23.8,2.6c-5.8-5.8-4.7-16.5,2.7-23.8
				C60.4,206.5,71.1,205.3,76.9,211.1z"/>
			<path class="st0" d="M74.3,53.1c7.3,7.3,8.5,18,2.7,23.8c-5.8,5.8-16.5,4.7-23.8-2.6c-7.3-7.3-8.5-18-2.6-23.8S67,45.8,74.3,53.1
				z"/>
			<path class="st0" d="M31.7,129c10.3,0,18.8,6.7,18.8,15c0,8.3-8.4,15-18.8,15c-10.4,0-18.7-6.7-18.7-15
				C13,135.7,21.3,129,31.7,129z"/>
		</g>
		<g>
		</g>
	</g>
</g>
</svg>
