<?xml version="1.0" encoding="utf-8"?>
<!-- Generator: Adobe Illustrator 24.2.1, SVG Export Plug-In . SVG Version: 6.00 Build 0)  -->
<svg version="1.1" id="SvgjsSvg1112" xmlns:svgjs="http://svgjs.com/svgjs"
	 xmlns="http://www.w3.org/2000/svg" xmlns:xlink="http://www.w3.org/1999/xlink" x="0px" y="0px" viewBox="0 0 288 288"
	 style="enable-background:new 0 0 288 288;" xml:space="preserve">
<style type="text/css">
	.st0{fill:#939393;}
</style>
<g id="SvgjsG1114">
	<path class="st0" d="M245.6,24H42.4c-9.6-0.1-17.5,7.5-17.6,17.2c0,0,0,0,0,0v205.7c0.1,9.6,8,17.3,17.6,17.2c0,0,0,0,0,0h203.3
		c9.6,0.1,17.5-7.5,17.6-17.2c0,0,0,0,0,0V41.2C263.1,31.6,255.3,23.9,245.6,24C245.6,24,245.6,24,245.6,24z M97.1,224.9h-36v-108
		h36V224.9z M79.1,101.8L79.1,101.8c-10.3,0-18.7-8.4-18.7-18.7s8.4-18.7,18.7-18.7c10.3-1.2,19.7,6.3,20.8,16.6
		s-6.3,19.7-16.6,20.8C81.9,101.9,80.5,101.9,79.1,101.8z M226.9,224.9h-36v-58c0-14.5-5.2-24-18.2-24c-8.3,0.1-15.7,5.3-18.5,13.1
		c-0.9,2.8-1.3,5.8-1.2,8.8v60h-36c0,0,0-98.2,0-108h36V132c6.7-11.6,19.2-18.5,32.5-18c24,0,41.4,15.5,41.4,48.7V224.9z"/>
</g>
</svg>
