<?xml version="1.0" encoding="utf-8"?>
<!-- Generator: Adobe Illustrator 24.2.1, SVG Export Plug-In . SVG Version: 6.00 Build 0)  -->
<svg version="1.1" id="SvgjsSvg1024" xmlns:svgjs="http://svgjs.com/svgjs"
	 xmlns="http://www.w3.org/2000/svg" xmlns:xlink="http://www.w3.org/1999/xlink" x="0px" y="0px" viewBox="0 0 288 288"
	 style="enable-background:new 0 0 288 288;" xml:space="preserve">
<style type="text/css">
	.st0{fill:#FFFFFF;}
</style>
<g id="SvgjsG1026">
	<g>
		<path class="st0" d="M269.9,187.8c-2.8-2.8-7.1-3.5-10.6-1.7c-16.4,8.4-34.7,12.9-53.1,12.8c-64.6,0-117-52.3-117.1-117
			c0-18.5,4.4-36.8,12.8-53.3c2.3-4.5,0.4-10-4.1-12.3c-2.6-1.3-5.6-1.3-8.1,0c-66.7,33.9-93.3,115.3-59.4,182s115.3,93.3,182,59.4
			c25.6-13,46.4-33.8,59.4-59.4C273.4,194.9,272.7,190.6,269.9,187.8z M245,88.8h-27.5c-5.1,0-9.2-4.1-9.2-9.2c0-2,0.6-3.9,1.8-5.5
			l16.5-22h-9.2c-5.1,0-9.2-4.1-9.2-9.2s4.1-9.2,9.2-9.2H245c5.1,0,9.2,4.1,9.2,9.2c0,2-0.6,3.9-1.8,5.5l-16.5,22h9.2
			c5.1,0,9.2,4.1,9.2,9.2S250.1,88.8,245,88.8z"/>
		<path class="st0" d="M180.8,153.1h-27.5c-3.5,0-6.6-2-8.2-5c-1.4-3-1.1-6.5,0.8-9.2l16.5-22.5h-9.2c-5.1,0-9.2-4.1-9.2-9.2
			c0-5.1,4.1-9.2,9.2-9.2h27.5c5.1,0,9.2,4.1,9.2,9.2c0,2-0.6,3.9-1.8,5.5l-16.5,22h9.2c5.1,0,9.2,4.1,9.2,9.2
			S185.8,153.1,180.8,153.1z"/>
	</g>
</g>
</svg>
