<?xml version="1.0" encoding="utf-8"?>
<!-- Generator: Adobe Illustrator 24.2.1, SVG Export Plug-In . SVG Version: 6.00 Build 0)  -->
<svg version="1.1" id="SvgjsSvg1046" xmlns:svgjs="http://svgjs.com/svgjs"
	 xmlns="http://www.w3.org/2000/svg" xmlns:xlink="http://www.w3.org/1999/xlink" x="0px" y="0px" viewBox="0 0 288 288"
	 style="enable-background:new 0 0 288 288;" xml:space="preserve">
<style type="text/css">
	.st0{fill:#FFFFFF;}
</style>
<g id="SvgjsG1048">
	<path class="st0" d="M206.8,187.9v18.8c0,7.5-5,12.6-12.6,12.6c-7.5,0-12.6-5-12.6-12.6v-18.8h-75.3v18.8c0,7.5-5,12.6-12.5,12.6
		c-7.5,0-12.6-5-12.6-12.6v-18.8H56.2c-8.8,0-17.6-2.5-25.1-6.3v50.2c0,21.3,16.3,37.6,37.6,37.6h150.6c21.3,0,37.7-16.3,37.7-37.6
		v-50.2c-7.5,3.8-16.3,6.3-25.1,6.3H206.8z M257,68.7h-50.2V56.2c0-21.3-16.3-37.7-37.6-37.7h-50.2c-21.3,0-37.7,16.3-37.7,37.7
		v12.5H31c-7.5,0-12.5,5-12.5,12.6v50.2c0,21.3,16.3,37.7,37.7,37.7h175.7c21.3,0,37.6-16.3,37.6-37.7V81.3
		C269.5,73.7,264.5,68.7,257,68.7z M181.6,68.7h-75.3V56.2c0-7.5,5-12.6,12.6-12.6h50.2c7.5,0,12.5,5,12.5,12.6V68.7z"/>
</g>
</svg>
