<?xml version="1.0" encoding="utf-8"?>
<!-- Generator: Adobe Illustrator 24.2.1, SVG Export Plug-In . SVG Version: 6.00 Build 0)  -->
<svg version="1.1" id="SvgjsSvg1070" xmlns:svgjs="http://svgjs.com/svgjs"
	 xmlns="http://www.w3.org/2000/svg" xmlns:xlink="http://www.w3.org/1999/xlink" x="0px" y="0px" viewBox="0 0 288 288"
	 style="enable-background:new 0 0 288 288;" xml:space="preserve">
<style type="text/css">
	.st0{fill:#FFFFFF;}
</style>
<g id="SvgjsG1072">
	<path class="st0" d="M274.7,179.8c-6.5-3.9-14.7-4.5-22.1-1.3c0,0,0,0-0.1,0.1c0,0-0.1,0-0.1,0.1c0,0,0,0-0.1,0l-0.1,0l0,0
		c-0.1,0-0.2,0.1-0.4,0.1c-2.7,1.2-13.1,5.8-48.7,21.6v-0.1c-8-11.3-22-3-41-1.3c-29.5-15.1-57.3-29.9-87.9-29v60.5h5.1l63.4,25.1
		c10.4,4.1,22.1,3,31.6-2.8l100.4-61.9C278.8,188.4,278.9,182.3,274.7,179.8z M62.6,162.6h-5.1v-3.8c0-3-2.4-5.4-5.4-5.4H15.6
		c-3,0-5.4,2.4-5.4,5.4v86.3c0,3,2.4,5.4,5.4,5.4h36.5c3,0,5.4-2.4,5.4-5.4v-3.8h5.1c3.3,0,5.9-2.7,5.9-5.9v-66.8
		C68.5,165.3,65.9,162.6,62.6,162.6z M41,242.3c-3.7,0-6.7-3-6.7-6.7c0-3.7,3-6.7,6.7-6.7c3.7,0,6.7,3,6.7,6.7
		C47.7,239.3,44.7,242.3,41,242.3z"/>
	<path class="st0" d="M111.2,112.3l11.4,1.3c1.4,5.9,3.7,11.6,6.9,16.7l-7.2,9c-1.9,2.4-1.7,5.7,0.5,7.9l7.9,7.9
		c2.1,2.1,5.5,2.3,7.9,0.5l9-7.2c5.1,3.2,10.8,5.6,16.7,6.9l1.3,11.4c0.9,7.9,11.2,4.5,16.9,5.2c3,0,5.5-2.2,5.9-5.2l1.3-11.4
		c5.9-1.4,11.6-3.7,16.7-6.9l9,7.2c2.4,1.9,5.7,1.7,7.9-0.5l7.9-7.9c2.1-2.1,2.3-5.5,0.5-7.9l-7.2-9c3.2-5.1,5.6-10.8,6.9-16.7
		l11.4-1.3c3-0.3,5.2-2.8,5.2-5.9v-11c0-3-2.2-5.5-5.2-5.9l-11.4-1.3c-1.4-5.9-3.7-11.6-6.9-16.7l7.2-9c1.9-2.4,1.7-5.7-0.5-7.9
		l-7.9-7.9c-2.1-2.1-5.5-2.3-7.9-0.5l-9,7.2c-5.1-3.2-10.8-5.6-16.7-6.9l-1.3-11.4c-0.3-3-2.8-5.2-5.9-5.2h-11c-3,0-5.5,2.2-5.9,5.2
		l-1.3,11.4c-5.9,1.4-11.6,3.7-16.7,6.9l-9-7.2c-2.4-1.9-5.7-1.7-7.9,0.5l-7.9,7.9c-2.1,2.1-2.3,5.5-0.5,7.9l7.2,9
		c-3.2,5.1-5.6,10.8-6.9,16.7l-11.4,1.3c-3,0.3-5.2,2.8-5.2,5.9v11C106,109.4,108.2,111.9,111.2,112.3z M158.7,82.6
		c10.1-10.1,26.5-10.1,36.6,0c10,10,10,26.5,0,36.5c-10.1,10.1-26.5,10.1-36.6,0C148.6,109.1,148.6,92.7,158.7,82.6z"/>
</g>
</svg>
