<?xml version="1.0" encoding="utf-8"?>
<!-- Generator: Adobe Illustrator 24.2.1, SVG Export Plug-In . SVG Version: 6.00 Build 0)  -->
<svg version="1.1" id="SvgjsSvg1049" xmlns:svgjs="http://svgjs.com/svgjs"
	 xmlns="http://www.w3.org/2000/svg" xmlns:xlink="http://www.w3.org/1999/xlink" x="0px" y="0px" viewBox="0 0 145.2 157.2"
	 style="enable-background:new 0 0 145.2 157.2;" xml:space="preserve">
<style type="text/css">
	.st0{fill:#52CC99;}
</style>
<g id="SvgjsG1051">
	<path class="st0" d="M3.7,93.5c-4.9-4.9-4.9-12.9,0-17.8c4.9-4.9,12.9-4.9,17.8,0l51.1,51.1l51.1-51.1c4.9-4.9,12.9-4.9,17.8,0
		c4.9,4.9,4.9,12.9,0,17.8l-60,60c-4.9,4.9-12.9,4.9-17.8,0L3.7,93.5z M3.7,21.5c-4.9-4.9-4.9-12.9,0-17.8s12.9-4.9,17.8,0
		l51.1,51.1l51.1-51.1c4.9-4.9,12.9-4.9,17.8,0c4.9,4.9,4.9,12.9,0,17.8l-60,60c-4.9,4.9-12.9,4.9-17.8,0L3.7,21.5z"/>
</g>
</svg>
