<svg id="Layer_1" data-name="Layer 1" xmlns="http://www.w3.org/2000/svg" viewBox="0 0 46.4 44.14"><defs><style>.cls-1{fill:#00c6cf;}.cls-2{fill:#fff;}</style></defs><path class="cls-1" d="M38.09,33.46c-.05.26,0,.59-.16.77C37,35.39,36,36.52,35,37.68c-.56-.59-1.1-1.15-1.6-1.74a.59.59,0,0,1,0-.5,1,1,0,0,1,.72,0,5.54,5.54,0,0,1,.79.81c.76-.88,1.49-1.76,2.27-2.59C37.39,33.52,37.79,33.53,38.09,33.46Z" transform="translate(-1.8 -2.93)"/><path class="cls-2" d="M25.31,2.93c12.59.11,23,9.88,22.89,22.35C48,37.33,37.8,47,25,47.07S1.8,37.11,1.8,24.77C1.81,12.72,12.37,2.81,25.31,2.93ZM41.58,38a19.67,19.67,0,0,0,4.85-14C46,14.31,38,5.4,26.53,4.63,16.81,4,7.26,9.69,4.38,19.43A19.12,19.12,0,0,0,5.53,33.55,20.35,20.35,0,0,0,11.69,41c0-.26,0-.42.05-.58.11-1.38.15-2.77.33-4.14A6.12,6.12,0,0,1,15.9,31c1.44-.58,3-.89,4.47-1.34a1.34,1.34,0,0,1,1.27.28,4.82,4.82,0,0,0,1.57.74A6.24,6.24,0,0,0,29,29.47l3.8.88a5.81,5.81,0,0,0-2.75,3.28,4.79,4.79,0,0,0,.48,4.06c1.87,2.79,4.48,3.43,7.69,2.17l.06,1,.2.12C39.54,40,40.65,39.07,41.58,38Z" transform="translate(-1.8 -2.93)"/><path class="cls-1" d="M46.43,23.93a19.67,19.67,0,0,1-4.85,14c-.93,1.09-2,2-3.07,3l-.2-.12-.06-1c-3.21,1.26-5.82.62-7.69-2.17a4.79,4.79,0,0,1-.48-4.06,5.81,5.81,0,0,1,2.75-3.28L29,29.47a6.24,6.24,0,0,1-5.82,1.16,4.82,4.82,0,0,1-1.57-.74,1.34,1.34,0,0,0-1.27-.28c-1.49.45-3,.76-4.47,1.34a6.12,6.12,0,0,0-3.83,5.33c-.18,1.37-.22,2.76-.33,4.14,0,.16,0,.32-.05.58a20.35,20.35,0,0,1-6.16-7.45A19.12,19.12,0,0,1,4.38,19.43C7.26,9.69,16.81,4,26.53,4.63,38,5.4,46,14.31,46.43,23.93ZM35.27,39.4A4.61,4.61,0,0,0,40,35.19a4.78,4.78,0,0,0-4.54-4.35,4.35,4.35,0,0,0-4.42,4.29C31,37.79,33.3,39.2,35.27,39.4Zm-4.57-14c1.52-2.45,1.55-5.09,1.1-7.79A5.37,5.37,0,0,0,28.11,13a11.34,11.34,0,0,0-4.38-.4,5.43,5.43,0,0,0-5.15,3.75,38.32,38.32,0,0,0-.76,4,10.07,10.07,0,0,0,1.84,5.57A6.28,6.28,0,0,0,27,28.44,7.09,7.09,0,0,0,30.7,25.44Z" transform="translate(-1.8 -2.93)"/><path class="cls-2" d="M40,35.19a4.61,4.61,0,0,1-4.74,4.21c-2-.2-4.31-1.61-4.22-4.27a4.35,4.35,0,0,1,4.42-4.29A4.78,4.78,0,0,1,40,35.19Zm-2.08-1c.15-.18.11-.51.16-.77-.3.07-.7.06-.87.24-.78.83-1.51,1.71-2.27,2.59a5.54,5.54,0,0,0-.79-.81,1,1,0,0,0-.72,0,.59.59,0,0,0,0,.5c.5.59,1,1.15,1.6,1.74C36,36.52,37,35.39,37.93,34.23Z" transform="translate(-1.8 -2.93)"/><path class="cls-2" d="M31.8,17.65c.45,2.7.42,5.34-1.1,7.79a7.09,7.09,0,0,1-3.74,3,6.28,6.28,0,0,1-7.3-2.51,10.07,10.07,0,0,1-1.84-5.57,38.32,38.32,0,0,1,.76-4,5.43,5.43,0,0,1,5.15-3.75,11.34,11.34,0,0,1,4.38.4A5.37,5.37,0,0,1,31.8,17.65Z" transform="translate(-1.8 -2.93)"/></svg>