<svg id="Layer_1" data-name="Layer 1" xmlns="http://www.w3.org/2000/svg" viewBox="0 0 46.01 42"><defs><style>.cls-1{fill:#fff;}.cls-2{fill:#00c6cf;}</style></defs><path class="cls-1" d="M40.16,35.84A4,4,0,0,1,41,38.19,4.52,4.52,0,0,1,38.38,42l-.16-2.11-.87-.76c.53-.62,1.06-1.25,1.58-1.88.15-.18.11-.51.16-.77Z" transform="translate(-2 -3)"/><path class="cls-1" d="M38.22,39.87,38.38,42a4,4,0,0,1-2.11.42c-2-.2-4.31-1.61-4.22-4.27a4.35,4.35,0,0,1,4.42-4.29,4.77,4.77,0,0,1,3.69,2l-1.07.62c-.3.07-.7.06-.87.24-.78.83-1.51,1.71-2.27,2.59a5.54,5.54,0,0,0-.79-.81,1,1,0,0,0-.72,0,.59.59,0,0,0,0,.5c.5.59,1,1.15,1.6,1.74.45-.53.91-1,1.36-1.57Z" transform="translate(-2 -3)"/><path class="cls-2" d="M38.93,37.23c-.52.63-1,1.26-1.58,1.88s-.91,1-1.36,1.57c-.56-.59-1.1-1.15-1.6-1.74a.59.59,0,0,1,0-.5,1,1,0,0,1,.72,0,5.54,5.54,0,0,1,.79.81c.76-.88,1.49-1.76,2.27-2.59.17-.18.57-.17.87-.24C39,36.72,39.08,37.05,38.93,37.23Z" transform="translate(-2 -3)"/><path class="cls-2" d="M38.38,42A4.52,4.52,0,0,0,41,38.19a4,4,0,0,0-.85-2.35,4.77,4.77,0,0,0-3.69-2,4.35,4.35,0,0,0-4.42,4.29C32,40.79,34.3,42.2,36.27,42.4A4,4,0,0,0,38.38,42ZM11.15,39.53c-.19,1.58-.24,3.18-.35,4.77,0,.19,0,.37-.06.67a23.17,23.17,0,0,1-6.6-8.58A23.57,23.57,0,0,1,2.9,20.11a23,23,0,0,1,23.75-17A23.27,23.27,0,0,1,48,25.3a23.76,23.76,0,0,1-5.2,16.19c-1,1.26-2.19,2.35-3.3,3.51l-.21-.15c0-.39,0-.78-.07-1.2-3.43,1.46-6.23.73-8.23-2.49a5.83,5.83,0,0,1-.52-4.68A6.64,6.64,0,0,1,33.4,32.7l-4.08-1A6.29,6.29,0,0,1,23.09,33a4.94,4.94,0,0,1-1.68-.85,1.36,1.36,0,0,0-1.36-.32c-1.6.52-3.26.88-4.79,1.54C12.65,34.51,11.49,36.79,11.15,39.53ZM30.7,25.44c1.52-2.45,1.55-5.09,1.1-7.79A5.37,5.37,0,0,0,28.11,13a11.34,11.34,0,0,0-4.38-.4,5.43,5.43,0,0,0-5.15,3.75,38.32,38.32,0,0,0-.76,4,10.07,10.07,0,0,0,1.84,5.57A6.28,6.28,0,0,0,27,28.44,7.09,7.09,0,0,0,30.7,25.44Z" transform="translate(-2 -3)"/><path class="cls-1" d="M31.8,17.65c.45,2.7.42,5.34-1.1,7.79a7.09,7.09,0,0,1-3.74,3,6.28,6.28,0,0,1-7.3-2.51,10.07,10.07,0,0,1-1.84-5.57,38.32,38.32,0,0,1,.76-4,5.43,5.43,0,0,1,5.15-3.75,11.34,11.34,0,0,1,4.38.4A5.37,5.37,0,0,1,31.8,17.65Z" transform="translate(-2 -3)"/></svg>